<svg width="35" height="35" viewBox="0 0 35 35" fill="none" xmlns="http://www.w3.org/2000/svg">
<rect width="35" height="35" rx="17.5" fill="white"/>
<path d="M14.51 22H11.105V21.88C11.105 21.33 11.325 21.035 11.765 20.995L12.185 20.965L11.645 13.69L8.96 20.38C8.6 20.49 8.28 20.515 8 20.455L5.105 13.975L4.67 20.935L5.885 21.025C5.915 21.085 5.91 21.22 5.87 21.43C5.78 21.81 5.56 22 5.21 22H2.15V21.88C2.15 21.33 2.37 21.035 2.81 20.995L3.41 20.965L3.95 12.79L2.915 12.7C2.885 12.64 2.89 12.505 2.93 12.295C3.02 11.915 3.24 11.725 3.59 11.725H6.155L8.795 17.695L11.105 11.725H13.85C14.02 11.725 14.16 11.77 14.27 11.86C14.38 11.94 14.45 12.04 14.48 12.16C14.54 12.46 14.555 12.64 14.525 12.7L13.475 12.79L14.09 20.935L15.185 21.025C15.215 21.085 15.21 21.22 15.17 21.43C15.08 21.81 14.86 22 14.51 22ZM16.7397 11.725H20.2497C23.7497 11.725 25.4997 13.42 25.4997 16.81C25.4997 18.49 25.0447 19.775 24.1347 20.665C23.2247 21.555 21.9547 22 20.3247 22H15.9597C15.9297 21.76 15.9547 21.54 16.0347 21.34C16.1247 21.14 16.2747 21.03 16.4847 21.01L17.0247 20.95V12.79H17.0097L15.9597 12.7C15.9497 12.35 15.9997 12.1 16.1097 11.95C16.2197 11.8 16.4297 11.725 16.7397 11.725ZM19.8747 20.965C21.1647 21.045 22.0997 20.76 22.6797 20.11C23.2597 19.46 23.5497 18.385 23.5497 16.885C23.5497 15.375 23.2497 14.3 22.6497 13.66C22.0597 13.01 21.0897 12.71 19.7397 12.76L18.8997 12.79V20.905L19.8747 20.965ZM28.4984 11.725H31.9034C31.9034 11.725 31.9034 11.765 31.9034 11.845C31.9034 12.395 31.6834 12.69 31.2434 12.73L30.8084 12.76V19.915C30.8084 20.805 30.5484 21.53 30.0284 22.09C29.5184 22.66 28.8284 22.945 27.9584 22.945C27.4784 22.945 27.0934 22.82 26.8034 22.57C26.5134 22.33 26.3684 22.04 26.3684 21.7C26.3684 20.9 26.7934 20.5 27.6434 20.5C27.6434 21.29 27.8934 21.685 28.3934 21.685C28.5734 21.685 28.7084 21.57 28.7984 21.34C28.8884 21.1 28.9334 20.66 28.9334 20.02V12.79H28.9184L27.8234 12.7C27.7634 12.05 27.9884 11.725 28.4984 11.725Z" fill="#2C2C2C"/>
</svg>
